<svg height="512pt" viewBox="0 0 512 512" width="512pt" xmlns="http://www.w3.org/2000/svg"><path d="M470 180H329.355c.446-4.934.688-9.93.688-14.98C330.043 74.027 256.012 0 165.02 0c-28.985 0-57.497 7.625-82.454 22.047-4.78 2.762-6.418 8.879-3.656 13.66 2.766 4.785 8.883 6.418 13.664 3.656C114.492 26.695 139.543 20 165.02 20c79.964 0 145.023 65.055 145.023 145.02 0 79.964-65.059 145.023-145.023 145.023-33.473 0-64.918-11.09-90.938-32.066a10.01 10.01 0 00-9.215-1.766l-26.543 6.941 10.399-22.851a9.996 9.996 0 00-1.016-10.028C29.582 225.38 20 195.898 20 165.02c0-25.543 6.73-50.657 19.465-72.622 2.77-4.78 1.14-10.898-3.637-13.668s-10.894-1.144-13.668 3.637C7.664 107.375 0 135.957 0 165.02c0 33.16 9.715 64.914 28.152 92.199L11.41 294.004a9.994 9.994 0 001.45 10.582 9.995 9.995 0 0010.18 3.234l42.526-11.117c28.508 21.535 63.621 33.34 99.454 33.34 7.8 0 15.468-.559 22.98-1.61V416c0 23.156 18.84 42 41.996 42H371.43l63.238 51.738a9.978 9.978 0 006.332 2.258c1.457 0 2.918-.316 4.281-.96a10.002 10.002 0 005.719-9.04V458h19c23.16 0 42-18.844 42-42V222c0-23.16-18.84-42-42-42zm22 236c0 12.129-9.867 22-22 22h-29c-5.523 0-10 4.477-10 10v32.895l-49.39-40.41C378.886 438 376.503 438 371.147 438H229.996C217.867 438 208 428.129 208 416v-91.648C267.152 308.379 313.238 260.277 326.297 200H470c12.133 0 22 9.867 22 22zm0 0"/><path d="M399.762 348.605c3.39-1.597 5.742-5.039 5.742-9.039 0-5.52-4.477-10-10-10h-4.094l-32.25-73.5c-1.597-3.636-5.191-5.984-9.16-5.984s-7.563 2.348-9.156 5.984l-32.25 73.5H304.5c-5.523 0-10 4.48-10 10 0 4 2.352 7.442 5.742 9.04L288.23 375.98c-2.218 5.06.082 10.958 5.137 13.176 5.059 2.219 10.957-.082 13.176-5.14l15.117-34.45h56.684l15.117 34.45a10 10 0 0013.176 5.14c5.054-2.219 7.36-8.117 5.136-13.176zm-69.328-19.039L350 284.973l19.566 44.593zm0 0M55.402 65.398c2.63 0 5.207-1.07 7.07-2.93a10.073 10.073 0 002.93-7.07c0-2.628-1.07-5.207-2.93-7.07a10.087 10.087 0 00-7.07-2.93c-2.64 0-5.21 1.07-7.07 2.93a10.087 10.087 0 00-2.93 7.07c0 2.633 1.07 5.211 2.93 7.07a10.056 10.056 0 007.07 2.93zm0 0M105.328 225.879c-4.844 2.656-6.617 8.734-3.96 13.578a10.005 10.005 0 008.777 5.195 9.975 9.975 0 004.8-1.234c22.301-12.23 39.457-31.254 49.493-53.688 10.039 22.434 27.19 41.458 49.492 53.688a9.975 9.975 0 004.8 1.234c3.532 0 6.958-1.879 8.778-5.195 2.656-4.844.883-10.922-3.961-13.578-26.106-14.316-43.676-39.902-48.04-68.813h44.4c5.523 0 10-4.476 10-10 0-5.523-4.477-10-10-10h-45.47V95.395c0-5.524-4.476-10-10-10s-10 4.476-10 10v41.671h-36.125c-5.523 0-10 4.477-10 10 0 5.524 4.477 10 10 10h35.055c-4.363 28.91-21.933 54.5-48.039 68.813zm0 0"/></svg>