<?xml version="1.0" standalone="no"?>
<!DOCTYPE svg PUBLIC "-//W3C//DTD SVG 20010904//EN"
 "http://www.w3.org/TR/2001/REC-SVG-20010904/DTD/svg10.dtd">
<svg version="1.0" xmlns="http://www.w3.org/2000/svg"
 width="260.000000pt" height="260.000000pt" viewBox="0 0 260.000000 260.000000"
 preserveAspectRatio="xMidYMid meet">
<metadata>
Created by potrace 1.11, written by Peter Selinger 2001-2013
</metadata>
<g transform="translate(0.000000,260.000000) scale(0.100000,-0.100000)"
fill="#000000" stroke="none">
<path d="M808 2145 c-4 -5 -488 -33 -600 -35 -10 0 -22 -9 -28 -21 -19 -35
-68 -317 -80 -459 -6 -74 -13 -142 -15 -150 -12 -38 -35 -400 -35 -540 0 -122
3 -160 15 -177 19 -27 83 -50 160 -58 33 -3 121 -15 195 -25 230 -33 436 -51
675 -60 279 -11 343 -17 419 -36 32 -8 115 -19 185 -24 69 -5 167 -18 216 -28
50 -11 144 -25 210 -31 66 -7 152 -17 192 -23 141 -21 155 -3 165 202 3 80 11
329 17 554 11 403 22 579 41 647 28 96 15 106 -160 129 -80 10 -197 28 -260
39 -238 41 -1290 119 -1312 96z m292 -105 c80 -5 215 -14 300 -20 319 -20 659
-50 790 -70 74 -11 154 -20 176 -20 23 0 56 -3 74 -6 28 -6 31 -10 26 -33 -17
-75 -36 -270 -45 -466 -20 -414 -31 -690 -31 -777 0 -48 -4 -89 -9 -93 -5 -3
-29 -1 -53 4 -24 5 -99 20 -168 32 -69 12 -172 32 -229 45 -57 14 -158 29
-225 35 -66 5 -148 17 -181 25 -62 16 -182 27 -485 44 -96 5 -202 14 -235 19
-33 6 -109 15 -170 21 -60 6 -155 19 -210 29 -55 11 -133 22 -173 26 l-72 7 1
127 c0 69 4 191 9 271 5 80 14 244 19 365 10 205 28 414 38 425 4 4 225 11
603 18 58 1 170 -3 250 -8z"/>
<path d="M1932 1890 c-17 -7 -22 -17 -20 -32 3 -20 12 -24 73 -35 39 -7 87
-17 109 -23 36 -11 38 -13 32 -42 -3 -17 -6 -48 -6 -69 0 -37 -1 -38 -27 -28
-16 5 -62 12 -103 17 l-75 7 -3 67 c-2 45 -8 70 -19 79 -27 23 -50 -19 -58
-108 -3 -43 -15 -111 -26 -152 -10 -41 -19 -97 -19 -123 0 -48 0 -49 48 -70
57 -25 179 -51 247 -52 48 -1 50 0 73 41 23 43 30 99 47 371 l6 103 -53 23
c-59 27 -189 41 -226 26z m111 -287 l67 -15 0 -67 c0 -36 -5 -83 -10 -103
l-11 -37 -57 19 c-31 10 -73 21 -92 24 -19 4 -45 14 -57 24 l-22 17 22 82 22
83 35 -6 c19 -3 65 -12 103 -21z"/>
<path d="M793 1679 c-31 -11 -29 -18 12 -35 36 -15 199 -28 487 -39 152 -6
167 -9 171 -26 7 -26 33 -24 62 6 55 54 20 85 -101 90 -199 10 -610 13 -631 4z"/>
<path d="M850 1551 c-59 -8 -100 -28 -100 -49 0 -10 24 -11 108 -6 113 7 432
-10 517 -28 79 -16 90 -15 90 7 0 30 -60 54 -156 65 -124 13 -396 19 -459 11z"/>
<path d="M369 1101 c-16 -13 -21 -23 -14 -29 6 -6 168 -17 360 -26 193 -9 434
-21 538 -26 197 -11 227 -7 227 29 0 24 -10 27 -107 40 -150 20 -380 31 -679
31 -283 0 -303 -1 -325 -19z"/>
</g>
</svg>
